<svg id="visual" viewBox="0 0 900 300" width="900" height="300" xmlns="http://www.w3.org/2000/svg" xmlns:xlink="http://www.w3.org/1999/xlink" version="1.1"><rect x="0" y="0" width="900" height="300" fill="#434343"></rect><path d="M0 184L15 191.8C30 199.7 60 215.3 90 216.2C120 217 150 203 180 196.8C210 190.7 240 192.3 270 189.5C300 186.7 330 179.3 360 174.2C390 169 420 166 450 174.8C480 183.7 510 204.3 540 209.8C570 215.3 600 205.7 630 200.7C660 195.7 690 195.3 720 191.8C750 188.3 780 181.7 810 182.5C840 183.3 870 191.7 885 195.8L900 200L900 301L885 301C870 301 840 301 810 301C780 301 750 301 720 301C690 301 660 301 630 301C600 301 570 301 540 301C510 301 480 301 450 301C420 301 390 301 360 301C330 301 300 301 270 301C240 301 210 301 180 301C150 301 120 301 90 301C60 301 30 301 15 301L0 301Z" fill="#01806b"></path><path d="M0 234L15 234.3C30 234.7 60 235.3 90 232.8C120 230.3 150 224.7 180 218.7C210 212.7 240 206.3 270 208.3C300 210.3 330 220.7 360 220.2C390 219.7 420 208.3 450 208.3C480 208.3 510 219.7 540 218.7C570 217.7 600 204.3 630 200.3C660 196.3 690 201.7 720 201.2C750 200.7 780 194.3 810 195.5C840 196.7 870 205.3 885 209.7L900 214L900 301L885 301C870 301 840 301 810 301C780 301 750 301 720 301C690 301 660 301 630 301C600 301 570 301 540 301C510 301 480 301 450 301C420 301 390 301 360 301C330 301 300 301 270 301C240 301 210 301 180 301C150 301 120 301 90 301C60 301 30 301 15 301L0 301Z" fill="#00956f"></path><path d="M0 223L15 223.3C30 223.7 60 224.3 90 221.7C120 219 150 213 180 216.8C210 220.7 240 234.3 270 233.7C300 233 330 218 360 220C390 222 420 241 450 250.5C480 260 510 260 540 251C570 242 600 224 630 218.2C660 212.3 690 218.7 720 221.7C750 224.7 780 224.3 810 229.8C840 235.3 870 246.7 885 252.3L900 258L900 301L885 301C870 301 840 301 810 301C780 301 750 301 720 301C690 301 660 301 630 301C600 301 570 301 540 301C510 301 480 301 450 301C420 301 390 301 360 301C330 301 300 301 270 301C240 301 210 301 180 301C150 301 120 301 90 301C60 301 30 301 15 301L0 301Z" fill="#0daa6e"></path><path d="M0 265L15 260.7C30 256.3 60 247.7 90 243.3C120 239 150 239 180 245.7C210 252.3 240 265.7 270 265C300 264.3 330 249.7 360 249.7C390 249.7 420 264.3 450 271.7C480 279 510 279 540 277.5C570 276 600 273 630 269.3C660 265.7 690 261.3 720 254.8C750 248.3 780 239.7 810 239.5C840 239.3 870 247.7 885 251.8L900 256L900 301L885 301C870 301 840 301 810 301C780 301 750 301 720 301C690 301 660 301 630 301C600 301 570 301 540 301C510 301 480 301 450 301C420 301 390 301 360 301C330 301 300 301 270 301C240 301 210 301 180 301C150 301 120 301 90 301C60 301 30 301 15 301L0 301Z" fill="#34be68"></path><path d="M0 282L15 278C30 274 60 266 90 263.8C120 261.7 150 265.3 180 271.2C210 277 240 285 270 284.2C300 283.3 330 273.7 360 270.7C390 267.7 420 271.3 450 269.8C480 268.3 510 261.7 540 259.3C570 257 600 259 630 264.5C660 270 690 279 720 283.7C750 288.3 780 288.7 810 283.7C840 278.7 870 268.3 885 263.2L900 258L900 301L885 301C870 301 840 301 810 301C780 301 750 301 720 301C690 301 660 301 630 301C600 301 570 301 540 301C510 301 480 301 450 301C420 301 390 301 360 301C330 301 300 301 270 301C240 301 210 301 180 301C150 301 120 301 90 301C60 301 30 301 15 301L0 301Z" fill="#57d25e"></path></svg>