<svg id="visual" viewBox="0 0 900 300" width="900" height="300" xmlns="http://www.w3.org/2000/svg" xmlns:xlink="http://www.w3.org/1999/xlink" version="1.1"><rect x="0" y="0" width="900" height="300" fill="#434343"></rect><path d="M0 140L15 135.8C30 131.7 60 123.3 90 123.3C120 123.3 150 131.7 180 123.5C210 115.3 240 90.7 270 90.3C300 90 330 114 360 116.2C390 118.3 420 98.7 450 95.8C480 93 510 107 540 104.8C570 102.7 600 84.3 630 82.3C660 80.3 690 94.7 720 105.2C750 115.7 780 122.3 810 118.3C840 114.3 870 99.7 885 92.3L900 85L900 0L885 0C870 0 840 0 810 0C780 0 750 0 720 0C690 0 660 0 630 0C600 0 570 0 540 0C510 0 480 0 450 0C420 0 390 0 360 0C330 0 300 0 270 0C240 0 210 0 180 0C150 0 120 0 90 0C60 0 30 0 15 0L0 0Z" fill="#01806b"></path><path d="M0 81L15 84.5C30 88 60 95 90 94.3C120 93.7 150 85.3 180 83.2C210 81 240 85 270 83.2C300 81.3 330 73.7 360 76.8C390 80 420 94 450 97.7C480 101.3 510 94.7 540 84.7C570 74.7 600 61.3 630 65C660 68.7 690 89.3 720 95.3C750 101.3 780 92.7 810 92.3C840 92 870 100 885 104L900 108L900 0L885 0C870 0 840 0 810 0C780 0 750 0 720 0C690 0 660 0 630 0C600 0 570 0 540 0C510 0 480 0 450 0C420 0 390 0 360 0C330 0 300 0 270 0C240 0 210 0 180 0C150 0 120 0 90 0C60 0 30 0 15 0L0 0Z" fill="#00956f"></path><path d="M0 41L15 45.3C30 49.7 60 58.3 90 59.2C120 60 150 53 180 55.3C210 57.7 240 69.3 270 76.7C300 84 330 87 360 81.8C390 76.7 420 63.3 450 55.2C480 47 510 44 540 49.8C570 55.7 600 70.3 630 72.3C660 74.3 690 63.7 720 64.3C750 65 780 77 810 77.7C840 78.3 870 67.7 885 62.3L900 57L900 0L885 0C870 0 840 0 810 0C780 0 750 0 720 0C690 0 660 0 630 0C600 0 570 0 540 0C510 0 480 0 450 0C420 0 390 0 360 0C330 0 300 0 270 0C240 0 210 0 180 0C150 0 120 0 90 0C60 0 30 0 15 0L0 0Z" fill="#0daa6e"></path><path d="M0 26L15 30.3C30 34.7 60 43.3 90 44.2C120 45 150 38 180 40.7C210 43.3 240 55.7 270 60.5C300 65.3 330 62.7 360 57.3C390 52 420 44 450 43.2C480 42.3 510 48.7 540 45.7C570 42.7 600 30.3 630 29.3C660 28.3 690 38.7 720 41.5C750 44.3 780 39.7 810 37.5C840 35.3 870 35.7 885 35.8L900 36L900 0L885 0C870 0 840 0 810 0C780 0 750 0 720 0C690 0 660 0 630 0C600 0 570 0 540 0C510 0 480 0 450 0C420 0 390 0 360 0C330 0 300 0 270 0C240 0 210 0 180 0C150 0 120 0 90 0C60 0 30 0 15 0L0 0Z" fill="#34be68"></path><path d="M0 20L15 19.7C30 19.3 60 18.7 90 18.7C120 18.7 150 19.3 180 22.5C210 25.7 240 31.3 270 29.5C300 27.7 330 18.3 360 16.8C390 15.3 420 21.7 450 25.5C480 29.3 510 30.7 540 29C570 27.3 600 22.7 630 25C660 27.3 690 36.7 720 35.3C750 34 780 22 810 18.5C840 15 870 20 885 22.5L900 25L900 0L885 0C870 0 840 0 810 0C780 0 750 0 720 0C690 0 660 0 630 0C600 0 570 0 540 0C510 0 480 0 450 0C420 0 390 0 360 0C330 0 300 0 270 0C240 0 210 0 180 0C150 0 120 0 90 0C60 0 30 0 15 0L0 0Z" fill="#57d25e"></path></svg>